<?xml version="1.0" encoding="UTF-8"?>
<svg width="127px" height="119px" viewBox="0 0 127 119" version="1.1" xmlns="http://www.w3.org/2000/svg" xmlns:xlink="http://www.w3.org/1999/xlink">
    <!-- Generator: Sketch 52.6 (67491) - http://www.bohemiancoding.com/sketch -->
    <title>Combined Shape</title>
    <desc>Created with Sketch.</desc>
    <g id="Page-1" stroke="none" stroke-width="1" fill="none" fill-rule="evenodd">
        <g id="Artboard" transform="translate(-143.000000, -147.000000)" fill="#979797" fill-rule="nonzero">
            <path d="M162.055265,201 L263.545881,201 C266.583448,201 269.045881,203.462434 269.045881,206.5 C269.045881,209.537566 266.583448,212 263.545881,212 L162.239072,212 L206.174288,256.11904 C208.317683,258.271403 208.310413,261.753803 206.15805,263.897198 C204.005688,266.040593 200.523288,266.033323 198.379893,263.88096 L145.102802,210.38096 C144.076315,209.350178 143.5,207.954712 143.5,206.5 L143.5,206.277091 C143.5,204.8184 144.079463,203.419453 145.110913,202.388003 L198.388003,149.110913 C200.535887,146.963029 204.018294,146.963029 206.166178,149.110913 C208.314061,151.258796 208.314061,154.741204 206.166178,156.889087 L162.055265,201 Z" id="Combined-Shape"></path>
        </g>
    </g>
</svg>