<?xml version="1.0" encoding="UTF-8"?>
<svg width="347px" height="400px" viewBox="0 0 347 400" version="1.1" xmlns="http://www.w3.org/2000/svg" xmlns:xlink="http://www.w3.org/1999/xlink">
    <!-- Generator: Sketch 49.3 (51167) - http://www.bohemiancoding.com/sketch -->
    <title>D</title>
    <desc>Created with Sketch.</desc>
    <defs>
        <radialGradient cx="29.6972086%" cy="19.8868979%" fx="29.6972086%" fy="19.8868979%" r="123.668038%" gradientTransform="translate(0.296972,0.198869),scale(1.000000,0.867500),translate(-0.296972,-0.198869)" id="radialGradient-1">
            <stop stop-color="#D458D1" offset="0%"></stop>
            <stop stop-color="#702F6E" offset="100%"></stop>
        </radialGradient>
    </defs>
    <g id="Page-1" stroke="none" stroke-width="1" fill="none" fill-rule="evenodd">
        <g id="D" fill-rule="nonzero">
            <path d="M145.367256,0.000208288149 L36.6072163,0.127951276 C16.389609,0.127951276 0,16.4686609 0,36.6259477 L0.420982988,381.751002 C0.420982988,391.829645 8.6157875,400 18.7245912,400 L71.2193394,400 C81.328143,400 89.5229475,391.829645 89.5229475,381.751002 L89.5229475,315.744375 L89.7791981,315.415893 L89.4863403,102.431835 C89.4863403,92.3531918 97.6811448,84.182837 107.789948,84.182837 L141.541802,84.182837 C203.188354,84.182837 253.578188,120.133363 253.669706,200.228217 C253.761224,267.329783 218.453563,303.170816 170.717753,313.080022 C146.875212,317.977473 129.777922,338.921135 129.809189,363.191771 L129.809189,390.766007 C129.809189,395.805329 133.906591,399.890506 138.960993,399.890506 L145.531989,399.890506 C173.141711,400.116871 200.580023,395.547171 226.616973,386.386247 C301.149265,359.395979 347.109625,293.133866 346.999804,199.972731 C346.853375,76.4635108 265.859909,-0.145783698 145.367256,0.000208288149 Z" id="Shape" fill="url(#radialGradient-1)"></path>
            <g id="Group" opacity="0.2" transform="translate(129.000000, 17.000000)" fill="#FFFFFF">
                <path d="M105.647563,0.109282932 C139.226891,52.5104488 142.670924,113.781746 124.571429,183.959602 C124.424874,184.506017 124.26,185.034218 124.113445,185.562418 C123.307395,250.913612 88.2991597,285.938791 41.1268908,295.7014 C17.2638732,300.589411 0.151899378,321.492702 0.183193277,345.716555 L0.183193277,373.383351 C0.183193277,378.412959 4.28411448,382.490262 9.34285714,382.490262 L15.9194958,382.490262 C43.5590742,382.718308 71.0273327,378.157386 97.092437,369.012033 C171.688739,342.073791 217.688571,275.939403 217.578655,182.957842 C217.468739,93.6736865 174.912941,28.959977 105.647563,0.109282932 Z" id="Shape"></path>
            </g>
        </g>
    </g>
</svg>