<?xml version="1.0" encoding="UTF-8"?>
<svg width="297px" height="417px" viewBox="0 0 297 417" version="1.1" xmlns="http://www.w3.org/2000/svg" xmlns:xlink="http://www.w3.org/1999/xlink">
    <!-- Generator: Sketch 49.3 (51167) - http://www.bohemiancoding.com/sketch -->
    <title>S</title>
    <desc>Created with Sketch.</desc>
    <defs>
        <radialGradient cx="49.9846148%" cy="50.0131598%" fx="49.9846148%" fy="50.0131598%" r="60.9542978%" gradientTransform="translate(0.499846,0.500132),scale(1.000000,0.713942),translate(-0.499846,-0.500132)" id="radialGradient-1">
            <stop stop-color="#00CBFF" offset="0%"></stop>
            <stop stop-color="#0089AD" offset="100%"></stop>
        </radialGradient>
    </defs>
    <g id="Page-1" stroke="none" stroke-width="1" fill="none" fill-rule="evenodd">
        <g id="S" fill-rule="nonzero">
            <path d="M226.48915,124.046028 C217.734647,126.504859 208.500468,122.16371 204.830053,113.863705 C197.21467,96.9963863 179.536755,78.8175702 142.738204,78.8722159 C109.427753,78.8722159 87.9512779,99.7651038 87.9512779,121.714476 C87.9512779,140.8587 99.8400408,154.92087 127.489176,159.966494 L181.143838,170.094171 C257.352452,184.065265 296.926875,233.009633 296.999924,289.859417 C297.072973,352.246637 244.660147,416 149.27611,416 C87.7321302,416 45.7288206,393.995982 19.6137194,364.705866 C-8.51023578,333.193489 7.67016959,283.046915 48.833413,273.10139 C58.3048559,270.811762 67.9099295,276.343496 70.6568717,285.669911 C79.4775668,314.613937 104.387356,337.255489 150.390111,337.200843 C185.380694,337.200843 206.820644,320.242449 206.78412,295.469713 C206.78412,275.196144 190.348042,260.587516 163.849432,255.560108 L109.062507,245.487077 C41.3276042,232.608897 0.0730492341,187.635453 0,128.526978 C0,53.0794267 66.4382785,0.0912743892 143.194761,0.000198156157 C230.105088,-0.109093323 270.081281,45.0100725 284.618079,87.4333818 C286.284204,92.1768912 285.911193,97.3962577 283.587337,101.856084 C281.26348,106.315911 277.195334,109.619785 272.345807,110.985696 L226.48915,124.046028 Z" id="Shape" fill="url(#radialGradient-1)"></path>
            <g id="Group" opacity="0.1" transform="translate(4.000000, 179.000000)" fill="#FFFFFF">
                <path d="M208.98115,0.0158387745 C227.773367,92.3119638 210.224215,109.885234 200.115173,130.685131 C199.694724,131.560148 199.255995,132.398707 198.817267,133.219036 C197.403346,136.180387 195.588874,138.934395 193.424558,141.404096 C188.652272,147.185989 182.303118,151.466081 175.144192,153.72726 C165.786224,157.170252 155.868785,158.851528 145.895605,158.685693 C144.798783,158.685693 143.738522,158.685693 142.659981,158.685693 L140.338374,158.79507 C126.993706,159.341956 117.780402,156.972117 111.382273,153.563194 C89.4457455,146.637007 72.4414522,129.221517 66.0835251,107.169033 C63.3416019,97.8279623 53.7246925,92.2825186 44.238487,94.5724259 C3.08938195,104.54398 -13.1070228,154.729884 14.9899006,186.266976 C41.1673855,215.580065 83.2122285,237.674259 144.780503,237.601341 C240.258857,237.491964 292.723509,173.797976 292.650388,111.234219 C292.705229,62.9077273 264.187857,20.3599975 208.98115,0.0158387745 Z" id="Shape"></path>
            </g>
        </g>
    </g>
</svg>