<svg xmlns="http://www.w3.org/2000/svg" xmlns:xlink="http://www.w3.org/1999/xlink" viewBox="0 0 1827.27 1636.29"><defs><style>.cls-1{fill:url(#radial-gradient);}.cls-2{opacity:0.2;}.cls-3{fill:#fff;}.cls-4{fill:url(#radial-gradient-2);}.cls-5{opacity:0.1;}</style><radialGradient id="radial-gradient" cx="1002.49" cy="549.58" r="1450.86" gradientUnits="userSpaceOnUse"><stop offset="0" stop-color="#d458d1"/><stop offset="1" stop-color="#702f6e"/></radialGradient><radialGradient id="radial-gradient-2" cx="503.32" cy="706.66" r="613.47" gradientUnits="userSpaceOnUse"><stop offset="0" stop-color="#00cbff"/><stop offset="1" stop-color="#0089ad"/></radialGradient></defs><title>sd-logo</title><g id="Layer_2" data-name="Layer 2"><g id="Layer_1-2" data-name="Layer 1"><path class="cls-1" d="M1145.62,279.81l-367.75.44A123.76,123.76,0,0,0,654.25,404.16l1.39,1170.32a61.89,61.89,0,0,0,62,61.81l177.49-.22a61.88,61.88,0,0,0,61.81-62l-.27-223.86.92-1-.86-722.33a61.89,61.89,0,0,1,61.81-62l114.07-.13c208.46-.25,378.82,122,379.14,393.52.27,227.55-119.11,349.12-280.45,382.71l0,0A173.33,173.33,0,0,0,1093,1511h0l.11,93.9a30.94,30.94,0,0,0,31,30.9l21.26,0h1c100.18-.22,192.17-15.94,274-45.67,252-91.56,407.37-316.23,407-632.16C1826.77,539.1,1553,279.32,1145.62,279.81Z"/><g class="cls-2"><path class="cls-3" d="M1449.19,336.7c113.65,178,125.06,386.23,63.92,624.66-.47,1.86-1,3.64-1.53,5.46-2.71,222-121,341-280.32,374.2l0,0A173.33,173.33,0,0,0,1093,1511h0l.11,93.9a30.94,30.94,0,0,0,31,30.9l21.26,0h1c100.18-.22,192.17-15.94,274-45.67,252-91.56,407.37-316.23,407-632.16C1826.91,654.6,1683.17,434.73,1449.19,336.7Z"/></g><path class="cls-4" d="M767.74,421.23a62,62,0,0,1-73.43-34.55c-25.8-57.35-85.71-119.08-210.64-118.93-112.84.14-185.44,71-185.35,145.58.08,65,40.3,112.78,134,129.89l181.74,34.2c258.24,47.51,392.31,213.74,392.54,406.9.26,212.29-177.35,428.61-500.56,429-208.54.25-350.88-74.76-439.46-174.29C-28.68,1132,26.16,961.58,165.45,927.79h0c32.1-7.79,64.33,11.1,73.93,42.7,29.86,98.35,114.27,175.26,270.19,175.07,118.58-.14,191.19-57.6,191.08-141.75C700.57,935,645.05,885.3,555.14,868.2L369.59,834C140,790.28.24,637.44,0,436.63-.3,180.35,225.16.31,485.26,0c294.49-.35,430,152.92,479.21,297.27,11.53,33.78-7.23,70.34-41.57,80.05Z"/><g class="cls-5"><path class="cls-3" d="M723,607c63.66,313.32,4.23,373-30,443.58-1.43,3-2.9,5.79-4.39,8.56a122.18,122.18,0,0,1-18.29,27.84c-16,19.5-35.6,32.8-61.83,41.82-27.68,10.8-60.92,16.76-98.91,16.8-3.71,0-7.34-.07-11-.15-2.61.12-5.22.25-7.9.36-45.17,1.88-76.34-6.42-98-17.78-82.95-28.14-132-87.36-153.32-157.5-9.6-31.6-41.83-50.49-73.93-42.7h0C26.16,961.58-28.68,1132,66.61,1239c88.58,99.53,230.92,174.54,439.46,174.29,323.21-.39,500.82-216.71,500.56-429C1006.44,820.46,909.88,676,723,607Z"/></g></g></g></svg>