<?xml version="1.0" encoding="UTF-8"?>
<svg width="74px" height="74px" viewBox="0 0 74 74" version="1.1" xmlns="http://www.w3.org/2000/svg" xmlns:xlink="http://www.w3.org/1999/xlink">
    <!-- Generator: Sketch 49.3 (51167) - http://www.bohemiancoding.com/sketch -->
    <title>aperture</title>
    <desc>Created with Sketch.</desc>
    <defs></defs>
    <g id="Page-1" stroke="none" stroke-width="1" fill="none" fill-rule="evenodd" >
        <g id="Somethings-going-on-here...-Copy" transform="translate(-734.000000, -733.000000)" fill="#FFFFFF">
            <g id="Icons" transform="translate(53.000000, 120.000000)">
                <path d="M747.32812,670.96876 C749.46355,667.99999 751.15624,664.70575 752.40625,661.08594 C753.65626,657.46613 754.28125,653.65107 754.28125,649.64063 C754.28125,647.14062 754.03386,644.66668 753.53906,642.21876 C753.04427,639.77083 752.30209,637.47918 751.3125,635.34376 C751.3125,635.34376 751.3125,635.29167 751.3125,635.1875 C751.3125,635.08334 751.3125,635.03126 751.3125,635.03126 C750.06249,632.11457 748.44793,629.40627 746.46875,626.90626 C744.54166,624.45833 742.31512,622.29689 739.78906,620.42188 C737.26301,618.54687 734.4896,617.01043 731.46875,615.8125 C728.4479,614.5625 725.27085,613.72917 721.9375,613.3125 C721.9375,613.3125 721.88542,613.3125 721.78125,613.3125 C721.67708,613.3125 721.625,613.3125 721.625,613.3125 C720.94791,613.15625 720.28386,613.06511 719.63281,613.03907 C718.98177,613.01303 718.31771,613 717.64062,613 C714.61978,613 711.72918,613.33854 708.96875,614.01563 C706.15624,614.69272 703.50001,615.66927 701,616.94532 C698.49999,618.22137 696.1823,619.77083 694.04688,621.59376 C691.91145,623.41668 690.010425,625.44791 688.34375,627.6875 C688.34375,627.84376 688.278646,627.94792 688.148438,628 C688.018229,628.05209 687.953125,628.15625 687.953125,628.3125 C685.817698,631.33335 684.125006,634.65363 682.875,638.27344 C681.624994,641.89325 681,645.68228 681,649.64063 C681,652.14064 681.247393,654.6276 681.742188,657.10157 C682.236982,659.57554 682.979162,661.98437 683.96875,664.32813 C683.96875,664.32813 683.96875,664.38021 683.96875,664.48438 C683.96875,664.58855 683.96875,664.64063 683.96875,664.64063 C685.218756,667.50523 686.833323,670.16145 688.8125,672.60938 C690.739593,675.05731 692.95311,677.231766 695.45312,679.132818 C697.95314,681.033869 700.68749,682.609374 703.65625,683.85938 C706.62501,685.109386 709.72394,685.942711 712.95312,686.35938 C712.95312,686.35938 713.01823,686.35938 713.14844,686.35938 C713.27865,686.35938 713.34375,686.35938 713.34375,686.35938 C713.96875,686.35938 714.61979,686.411463 715.29688,686.51563 C715.97396,686.619797 716.65104,686.67188 717.32812,686.67188 C720.29689,686.67188 723.18749,686.333342 726,685.656255 C728.81251,684.979168 731.46874,684.002616 733.96875,682.726568 C736.46876,681.450519 738.78645,679.901056 740.92188,678.07813 C743.0573,676.2552 744.95833,674.22397 746.625,671.98438 C746.78125,671.82813 746.9375,671.67188 747.09375,671.51563 C747.25,671.35938 747.32812,671.17709 747.32812,670.96876 Z M723.34375,659.64063 L711.625,659.64063 L706,649.64063 L711.625,639.64063 L723.34375,639.64063 L728.96875,649.64063 L723.34375,659.64063 Z M687.640625,649.64063 C687.640625,647.34895 687.888018,645.05731 688.382812,642.76563 C688.877607,640.47395 689.619787,638.33856 690.609375,636.35938 L703.96875,659.64063 L689.28125,659.64063 C688.812498,658.18229 688.421877,656.61981 688.109375,654.95313 C687.796873,653.28646 687.640625,651.51564 687.640625,649.64063 Z M731,639.64063 L745.60938,639.64063 C746.13021,641.15105 746.54687,642.73958 746.85938,644.40626 C747.17188,646.07293 747.32812,647.8177 747.32812,649.64063 C747.32812,651.98439 747.08073,654.30208 746.58594,656.59376 C746.09114,658.88543 745.32292,661.02083 744.28125,663 L731,639.64063 Z M742.64062,633 L715.60938,633 L722.95312,620.34376 C727.11981,621.02084 730.89582,622.46614 734.28125,624.67969 C737.66668,626.89325 740.45311,629.66666 742.64062,633 Z M715.60938,619.64063 L702.32812,643 L694.98438,630.34376 C697.48439,627.32291 700.50519,624.87501 704.04688,623 C707.58856,621.125 711.44269,620.00522 715.60938,619.64063 Z M692.64062,666.35938 L719.67188,666.35938 L712.32812,679.01563 C708.16144,678.338543 704.38543,676.893245 701,674.67969 C697.61457,672.46614 694.82814,669.69273 692.64062,666.35938 Z M719.67188,679.64063 L732.95312,656.35938 L740.29688,669.01563 C737.79686,671.98439 734.77606,674.41927 731.23438,676.32032 C727.69269,678.221369 723.83856,679.328128 719.67188,679.64063 Z" id="aperture"></path>
            </g>
        </g>
    </g>
</svg>