<?xml version="1.0" encoding="UTF-8"?>
<svg width="73px" height="67px" viewBox="0 0 73 67" version="1.1" xmlns="http://www.w3.org/2000/svg" xmlns:xlink="http://www.w3.org/1999/xlink">
    <!-- Generator: Sketch 49.3 (51167) - http://www.bohemiancoding.com/sketch -->
    <title>checkbox</title>
    <desc>Created with Sketch.</desc>
    <defs></defs>
    <g id="Page-1" stroke="none" stroke-width="1" fill="none" fill-rule="evenodd" >
        <g id="Somethings-going-on-here...-Copy" transform="translate(-1429.000000, -125.000000)" fill="#FFFFFF">
            <g id="Icons" transform="translate(53.000000, 120.000000)">
                <path d="M1448,5.94255576 C1447.32613,5.3141752 1446.5486,5 1445.66739,5 C1444.78617,5 1444.00865,5.3141752 1443.33477,5.94255576 L1409.20087,40.5029335 L1401.58099,32.8053848 C1400.90713,32.1246534 1400.1296,31.7842877 1399.24839,31.7842877 C1398.36716,31.7842877 1397.58963,32.1246534 1396.91576,32.8053848 C1396.2419,33.4861262 1395.90497,34.2715793 1395.90497,35.1617842 C1395.90497,36.0519791 1396.2419,36.8374322 1396.91576,37.5181635 L1406.86825,47.5720916 C1407.2311,47.8862869 1407.63283,48.1219208 1408.07343,48.2790135 C1408.51404,48.4361061 1408.88984,48.5146474 1409.20087,48.5146474 C1409.51188,48.5146474 1409.88769,48.4361061 1410.3283,48.2790135 C1410.7689,48.1219208 1411.17062,47.8862869 1411.53347,47.5720916 L1448,10.6553345 C1448.67387,9.97459312 1449.0108,9.18914005 1449.0108,8.29893509 C1449.0108,7.40874019 1448.67387,6.62328712 1448,5.94255576 Z M1439.05832,35.1617842 C1438.07343,35.1617842 1437.26998,35.4628692 1436.64795,36.0650593 C1436.02592,36.6672493 1435.7149,37.4658027 1435.7149,38.4607193 L1435.7149,61.9460719 C1435.7149,62.9409966 1435.41685,63.7526341 1434.82073,64.3810076 C1434.22462,65.0093812 1433.43413,65.3235634 1432.44924,65.3235634 L1385.95248,65.3235634 C1384.9676,65.3235634 1384.17711,65.0093812 1383.58099,64.3810076 C1382.98488,63.7526341 1382.68683,62.9409966 1382.68683,61.9460719 L1382.68683,15.0539281 C1382.68683,14.0066305 1382.98488,13.1819068 1383.58099,12.5797167 C1384.17711,11.9775266 1384.9676,11.6764316 1385.95248,11.6764316 L1422.49676,11.6764316 C1423.48165,11.6764316 1424.27213,11.3753365 1424.86825,10.7731465 C1425.46436,10.1709564 1425.76242,9.34623267 1425.76242,8.29893509 C1425.76242,7.30401848 1425.46436,6.50546514 1424.86825,5.90327506 C1424.27213,5.30108498 1423.48165,5 1422.49676,5 L1385.95248,5 C1383.15333,5 1380.79483,5.95563592 1378.87689,7.86693791 C1376.95895,9.77823991 1376,12.1738798 1376,15.0539281 L1376,61.9460719 C1376,64.7737533 1376.95895,67.156301 1378.87689,69.0937864 C1380.79483,71.0312719 1383.15333,72 1385.95248,72 L1432.44924,72 C1435.24839,72 1437.6069,71.0312719 1439.52483,69.0937864 C1441.44278,67.156301 1442.40173,64.7737533 1442.40173,61.9460719 L1442.40173,38.4607193 C1442.40173,37.4658027 1442.09071,36.6672493 1441.46868,36.0650593 C1440.84665,35.4628692 1440.0432,35.1617842 1439.05832,35.1617842 Z" id="checkbox"></path>
            </g>
        </g>
    </g>
</svg>