<?xml version="1.0" encoding="UTF-8"?>
<svg width="67px" height="67px" viewBox="0 0 67 67" version="1.1" xmlns="http://www.w3.org/2000/svg" xmlns:xlink="http://www.w3.org/1999/xlink">
    <!-- Generator: Sketch 49.3 (51167) - http://www.bohemiancoding.com/sketch -->
    <title>command</title>
    <desc>Created with Sketch.</desc>
    <defs></defs>
    <g id="Page-1" stroke="none" stroke-width="1" fill="none" fill-rule="evenodd" >
        <g id="Somethings-going-on-here...-Copy" transform="translate(-1075.000000, -568.000000)" fill="#00CBFF">
            <g id="Icons" transform="translate(53.000000, 120.000000)">
                <path d="M1075.35938,488 L1068.71875,488 L1068.71875,474.64062 L1075.35938,474.64062 C1079.00523,474.64062 1082.14322,473.33855 1084.77344,470.73437 C1087.40366,468.13019 1088.71875,464.97918 1088.71875,461.28124 C1088.71875,457.63539 1087.40366,454.51042 1084.77344,451.90624 C1082.14322,449.30207 1079.00523,448 1075.35938,448 C1071.71352,448 1068.57553,449.30207 1065.94531,451.90624 C1063.31509,454.51042 1062,457.63539 1062,461.28124 L1062,468 L1048.71875,468 L1048.71875,461.28124 C1048.71875,457.63539 1047.40366,454.51042 1044.77344,451.90624 C1042.14322,449.30207 1039.00523,448 1035.35938,448 C1031.71352,448 1028.57553,449.30207 1025.94531,451.90624 C1023.31509,454.51042 1022,457.63539 1022,461.28124 C1022,464.97918 1023.31509,468.13019 1025.94531,470.73437 C1028.57553,473.33855 1031.71352,474.64062 1035.35938,474.64062 L1042,474.64062 L1042,488 L1035.35938,488 C1031.71352,488 1028.57553,489.30207 1025.94531,491.90624 C1023.31509,494.51042 1022,497.63539 1022,501.28124 C1022,504.97918 1023.31509,508.13019 1025.94531,510.73437 C1028.57553,513.33855 1031.71352,514.64062 1035.35938,514.64062 C1039.00523,514.64062 1042.14322,513.33855 1044.77344,510.73437 C1047.40366,508.13019 1048.71875,504.97918 1048.71875,501.28124 L1048.71875,494.64062 L1062,494.64062 L1062,501.28124 C1062,504.97918 1063.31509,508.13019 1065.94531,510.73437 C1068.57553,513.33855 1071.71352,514.64062 1075.35938,514.64062 C1079.00523,514.64062 1082.14322,513.33855 1084.77344,510.73437 C1087.40366,508.13019 1088.71875,504.97918 1088.71875,501.28124 C1088.71875,497.63539 1087.40366,494.51042 1084.77344,491.90624 C1082.14322,489.30207 1079.00523,488 1075.35938,488 Z M1068.71875,461.28124 C1068.71875,459.45832 1069.36979,457.89583 1070.67188,456.59374 C1071.97396,455.29166 1073.53645,454.64062 1075.35938,454.64062 C1077.1823,454.64062 1078.74479,455.29166 1080.04688,456.59374 C1081.34896,457.89583 1082,459.45832 1082,461.28124 C1082,463.15625 1081.34896,464.74478 1080.04688,466.04687 C1078.74479,467.34896 1077.1823,468 1075.35938,468 L1068.71875,468 L1068.71875,461.28124 Z M1042,501.28124 C1042,503.15625 1041.34896,504.74478 1040.04688,506.04687 C1038.74479,507.34896 1037.1823,507.999995 1035.35938,507.999995 C1033.53645,507.999995 1031.97396,507.34896 1030.67188,506.04687 C1029.36979,504.74478 1028.71875,503.15625 1028.71875,501.28124 C1028.71875,499.45832 1029.36979,497.89583 1030.67188,496.59374 C1031.97396,495.29166 1033.53645,494.64062 1035.35938,494.64062 L1042,494.64062 L1042,501.28124 Z M1042,468 L1035.35938,468 C1033.53645,468 1031.97396,467.34896 1030.67188,466.04687 C1029.36979,464.74478 1028.71875,463.15625 1028.71875,461.28124 C1028.71875,459.45832 1029.36979,457.89583 1030.67188,456.59374 C1031.97396,455.29166 1033.53645,454.64062 1035.35938,454.64062 C1037.1823,454.64062 1038.74479,455.29166 1040.04688,456.59374 C1041.34896,457.89583 1042,459.45832 1042,461.28124 L1042,468 Z M1062,488 L1048.71875,488 L1048.71875,474.64062 L1062,474.64062 L1062,488 Z M1075.35938,507.999995 C1073.53645,507.999995 1071.97396,507.34896 1070.67188,506.04687 C1069.36979,504.74478 1068.71875,503.15625 1068.71875,501.28124 L1068.71875,494.64062 L1075.35938,494.64062 C1077.1823,494.64062 1078.74479,495.29166 1080.04688,496.59374 C1081.34896,497.89583 1082,499.45832 1082,501.28124 C1082,503.15625 1081.34896,504.74478 1080.04688,506.04687 C1078.74479,507.34896 1077.1823,507.999995 1075.35938,507.999995 Z" id="command"></path>
            </g>
        </g>
    </g>
</svg>