<?xml version="1.0" encoding="UTF-8"?>
<svg width="80px" height="80px" viewBox="0 0 80 80" version="1.1" xmlns="http://www.w3.org/2000/svg" xmlns:xlink="http://www.w3.org/1999/xlink">
    <!-- Generator: Sketch 49.3 (51167) - http://www.bohemiancoding.com/sketch -->
    <title>cpu</title>
    <desc>Created with Sketch.</desc>
    <defs></defs>
    <g id="Page-1" stroke="none" stroke-width="1" fill="none" fill-rule="evenodd" >
        <g id="Somethings-going-on-here...-Copy" transform="translate(-1062.000000, -264.000000)" fill="#1DE2A3">
            <g id="Icons" transform="translate(53.000000, 120.000000)">
                <path d="M1059,170.71875 L1039,170.71875 C1038.01041,170.71875 1037.20313,171.01823 1036.57812,171.61719 C1035.95312,172.21615 1035.64062,173.01041 1035.64062,174 L1035.64062,194 C1035.64062,195.04167 1035.95312,195.86198 1036.57812,196.46094 C1037.20313,197.0599 1038.01041,197.35938 1039,197.35938 L1059,197.35938 C1059.98959,197.35938 1060.79687,197.0599 1061.42188,196.46094 C1062.04688,195.86198 1062.35938,195.04167 1062.35938,194 L1062.35938,174 C1062.35938,173.01041 1062.04688,172.21615 1061.42188,171.61719 C1060.79687,171.01823 1059.98959,170.71875 1059,170.71875 Z M1055.64062,190.71875 L1042.35938,190.71875 L1042.35938,177.35938 L1055.64062,177.35938 L1055.64062,190.71875 Z M1085.64062,187.35938 L1079,187.35938 L1079,177.35938 L1085.64062,177.35938 C1086.6823,177.35938 1087.5026,177.0599 1088.10156,176.46094 C1088.70052,175.86198 1089,175.04167 1089,174 C1089,173.01041 1088.70052,172.21615 1088.10156,171.61719 C1087.5026,171.01823 1086.6823,170.71875 1085.64062,170.71875 L1079,170.71875 L1079,164 C1079,161.18749 1078.03647,158.81772 1076.10938,156.89062 C1074.18228,154.96353 1071.81251,154 1069,154 L1062.35938,154 L1062.35938,147.35938 C1062.35938,146.36979 1062.04688,145.5625 1061.42188,144.9375 C1060.79687,144.3125 1059.98959,144 1059,144 C1058.01041,144 1057.20313,144.3125 1056.57812,144.9375 C1055.95312,145.5625 1055.64062,146.36979 1055.64062,147.35938 L1055.64062,154 L1042.35938,154 L1042.35938,147.35938 C1042.35938,146.36979 1042.04688,145.5625 1041.42188,144.9375 C1040.79687,144.3125 1039.98959,144 1039,144 C1038.01041,144 1037.20313,144.3125 1036.57812,144.9375 C1035.95312,145.5625 1035.64062,146.36979 1035.64062,147.35938 L1035.64062,154 L1029,154 C1026.18749,154 1023.81772,154.96353 1021.89062,156.89062 C1019.96353,158.81772 1019,161.18749 1019,164 L1019,170.71875 L1012.35938,170.71875 C1011.3177,170.71875 1010.4974,171.01823 1009.89844,171.61719 C1009.29948,172.21615 1009,173.01041 1009,174 C1009,175.04167 1009.29948,175.86198 1009.89844,176.46094 C1010.4974,177.0599 1011.3177,177.35938 1012.35938,177.35938 L1019,177.35938 L1019,187.35938 L1012.35938,187.35938 C1011.3177,187.35938 1010.4974,187.65885 1009.89844,188.25781 C1009.29948,188.85677 1009,189.67708 1009,190.71875 C1009,191.70834 1009.29948,192.5026 1009.89844,193.10156 C1010.4974,193.70052 1011.3177,194 1012.35938,194 L1019,194 L1019,204 C1019,206.8646 1019.96353,209.24739 1021.89062,211.14844 C1023.81772,213.04949 1026.18749,214 1029,214 L1035.64062,214 L1035.64062,220.71875 C1035.64062,221.708338 1035.95312,222.502601 1036.57812,223.101562 C1037.20313,223.700524 1038.01041,224 1039,224 C1039.98959,224 1040.79687,223.700524 1041.42188,223.101562 C1042.04688,222.502601 1042.35938,221.708338 1042.35938,220.71875 L1042.35938,214 L1055.64062,214 L1055.64062,220.71875 C1055.64062,221.708338 1055.95312,222.502601 1056.57812,223.101562 C1057.20313,223.700524 1058.01041,224 1059,224 C1059.98959,224 1060.79687,223.700524 1061.42188,223.101562 C1062.04688,222.502601 1062.35938,221.708338 1062.35938,220.71875 L1062.35938,214 L1069,214 C1071.81251,214 1074.18228,213.04949 1076.10938,211.14844 C1078.03647,209.24739 1079,206.8646 1079,204 L1079,194 L1085.64062,194 C1086.6823,194 1087.5026,193.70052 1088.10156,193.10156 C1088.70052,192.5026 1089,191.70834 1089,190.71875 C1089,189.67708 1088.70052,188.85677 1088.10156,188.25781 C1087.5026,187.65885 1086.6823,187.35938 1085.64062,187.35938 Z M1072.35938,204 C1072.35938,205.04167 1072.04688,205.86198 1071.42188,206.46094 C1070.79687,207.0599 1069.98959,207.35938 1069,207.35938 L1029,207.35938 C1028.01041,207.35938 1027.20313,207.0599 1026.57812,206.46094 C1025.95312,205.86198 1025.64062,205.04167 1025.64062,204 L1025.64062,164 C1025.64062,163.01041 1025.95312,162.21615 1026.57812,161.61719 C1027.20313,161.01823 1028.01041,160.71875 1029,160.71875 L1069,160.71875 C1069.98959,160.71875 1070.79687,161.01823 1071.42188,161.61719 C1072.04688,162.21615 1072.35938,163.01041 1072.35938,164 L1072.35938,204 Z" id="cpu"></path>
            </g>
        </g>
    </g>
</svg>