<?xml version="1.0" encoding="UTF-8"?>
<svg width="73px" height="78px" viewBox="0 0 73 78" version="1.1" xmlns="http://www.w3.org/2000/svg" xmlns:xlink="http://www.w3.org/1999/xlink">
    <!-- Generator: Sketch 49.3 (51167) - http://www.bohemiancoding.com/sketch -->
    <title>cube</title>
    <desc>Created with Sketch.</desc>
    <defs></defs>
    <g id="Page-1" stroke="none" stroke-width="1" fill="none" fill-rule="evenodd" >
        <g id="Somethings-going-on-here...-Copy" transform="translate(-710.000000, -119.000000)" fill="#D458D1">
            <g id="Icons" transform="translate(53.000000, 120.000000)">
                <path d="M724.396588,13.3539504 L697.780384,-1.33226763e-15 C697.780384,-1.33226763e-15 697.780384,-1.33226763e-15 697.780384,-1.33226763e-15 C696.483291,-0.676815318 695.043538,-1.01521798 693.461085,-1.01521798 C691.878632,-1.01521798 690.335118,-0.676815318 688.830485,-1.33226763e-15 L662.292111,13.3539504 C660.631832,14.1869523 659.33476,15.3713616 658.400853,16.9071983 C657.466946,18.443045 657,20.148063 657,22.0223124 L657,53.6500964 C657,55.4722869 657.479917,57.2163491 658.439765,58.8823529 C659.399614,60.5483468 660.787482,61.7978297 662.603412,62.6308316 L689.219616,75.984787 C689.842217,76.2971618 690.542639,76.5444548 691.320891,76.7266734 C692.099152,76.9088921 692.825514,77 693.499995,77 C694.330137,77 695.095408,76.9088921 695.79584,76.7266734 C696.496271,76.5444548 697.157783,76.2971618 697.780384,75.984787 L724.396588,62.6308316 C726.056862,61.7978297 727.405825,60.587401 728.443497,58.9994954 C729.481169,57.4115898 730,55.6284735 730,53.6500964 L730,22.0223124 C730,20.148063 729.520079,18.443045 728.560237,16.9071983 C727.600385,15.3713616 726.212522,14.1869523 724.396588,13.3539504 Z M692.176972,5.62271805 C692.332623,5.46653144 692.553123,5.37541842 692.838484,5.34938898 C693.123844,5.32335955 693.344345,5.31034483 693.499995,5.31034483 C693.811306,5.31034483 694.070716,5.32335955 694.278257,5.34938898 C694.485787,5.37541842 694.667377,5.46653144 694.823028,5.62271805 L719.415778,17.9614604 L693.499995,31.0030476 L667.584222,17.9614604 L692.176972,5.62271805 Z M665.249467,57.0081136 C664.782514,56.6436715 664.393392,56.1751217 664.08209,55.6024341 C663.770787,55.0297465 663.615139,54.4830984 663.615139,53.9624696 L663.615139,23.3498936 L690.153518,36.6257656 L690.153518,69.2687627 L665.249467,57.0081136 Z M721.361412,57.0081136 L696.846482,69.2687627 L696.846482,36.6257656 L723.384856,23.3498936 L723.384856,53.9624696 C723.384856,54.639285 723.216246,55.2249773 722.878995,55.7195765 C722.541755,56.2141658 722.035894,56.6436715 721.361412,57.0081136 Z" id="cube"></path>
            </g>
        </g>
    </g>
</svg>