<?xml version="1.0" encoding="UTF-8"?>
<svg width="67px" height="67px" viewBox="0 0 67 67" version="1.1" xmlns="http://www.w3.org/2000/svg" xmlns:xlink="http://www.w3.org/1999/xlink">
    <!-- Generator: Sketch 49.3 (51167) - http://www.bohemiancoding.com/sketch -->
    <title>headphones</title>
    <desc>Created with Sketch.</desc>
    <defs></defs>
    <g id="Page-1" stroke="none" stroke-width="1" fill="none" fill-rule="evenodd" >
        <g id="Somethings-going-on-here...-Copy" transform="translate(-262.000000, -197.000000)" fill="#1DE2A3">
            <g id="Icons" transform="translate(53.000000, 120.000000)">
                <path d="M242.500005,77 C237.897324,77 233.556231,77.8639944 229.476576,79.5920233 C225.44924,81.3724131 221.91883,83.7811432 218.885246,86.8182841 C215.851664,89.855425 213.445754,93.4161543 211.667447,97.5005827 C209.88914,101.53265 209,105.852652 209,110.460719 L209,133.946072 C209,136.773753 209.967594,139.156301 211.90281,141.093786 C213.838027,143.031272 216.217785,144 219.042155,144 L222.415696,144 C225.240062,144 227.619822,143.031272 229.555035,141.093786 C231.490249,139.156301 232.45785,136.773753 232.45785,133.946072 L232.45785,123.892144 C232.45785,121.064467 231.490249,118.681917 229.555035,116.744424 C227.619822,114.806942 225.240062,113.838216 222.415696,113.838216 L215.747073,113.838216 L215.747073,110.460719 C215.747073,106.795208 216.453155,103.33921 217.86534,100.092606 C219.277523,96.8460116 221.186556,94.0052843 223.592506,91.5703335 C225.998455,89.1353928 228.822781,87.2110207 232.065574,85.7971871 C235.360676,84.3833434 238.838776,83.6764316 242.500005,83.6764316 C246.161224,83.6764316 249.639324,84.3833434 252.934426,85.7971871 C256.177219,87.2110207 259.001545,89.1353928 261.407494,91.5703335 C263.813444,94.0052843 265.722477,96.8460116 267.134655,100.092606 C268.546843,103.33921 269.252927,106.795208 269.252927,110.460719 L269.252927,113.838216 L262.584314,113.838216 C259.759938,113.838216 257.380178,114.806942 255.444965,116.744424 C253.509751,118.681917 252.54216,121.064467 252.54216,123.892144 L252.54216,133.946072 C252.54216,136.773753 253.509751,139.156301 255.444965,141.093786 C257.380178,143.031272 259.759938,144 262.584314,144 L265.957845,144 C268.782211,144 271.161971,143.031272 273.097185,141.093786 C275.032408,139.156301 276,136.773753 276,133.946072 L276,110.460719 C276,105.852652 275.110858,101.53265 273.332553,97.5005827 C271.554248,93.4161543 269.148338,89.855425 266.114754,86.8182841 C263.08117,83.7811432 259.55076,81.3724131 255.523414,79.5920233 C251.443769,77.8639944 247.102676,77 242.500005,77 Z M222.415696,120.514647 C223.409447,120.514647 224.220141,120.828833 224.847775,121.457203 C225.47541,122.085584 225.789227,122.897217 225.789227,123.892144 L225.789227,133.946072 C225.789227,134.940997 225.47541,135.752634 224.847775,136.381008 C224.220141,137.009381 223.409447,137.323563 222.415696,137.323563 L219.042155,137.323563 C218.048395,137.323563 217.250784,137.009381 216.649298,136.381008 C216.047811,135.752634 215.747073,134.940997 215.747073,133.946072 L215.747073,120.514647 L222.415696,120.514647 Z M269.252927,133.946072 C269.252927,134.940997 268.952185,135.752634 268.3507,136.381008 C267.749215,137.009381 266.951607,137.323563 265.957845,137.323563 L262.584314,137.323563 C261.590553,137.323563 260.779859,137.009381 260.152225,136.381008 C259.52459,135.752634 259.210773,134.940997 259.210773,133.946072 L259.210773,123.892144 C259.210773,122.897217 259.52459,122.085584 260.152225,121.457203 C260.779859,120.828833 261.590553,120.514647 262.584314,120.514647 L269.252927,120.514647 L269.252927,133.946072 Z" id="headphones"></path>
            </g>
        </g>
    </g>
</svg>