<?xml version="1.0" encoding="UTF-8"?>
<svg width="67px" height="74px" viewBox="0 0 67 74" version="1.1" xmlns="http://www.w3.org/2000/svg" xmlns:xlink="http://www.w3.org/1999/xlink">
    <!-- Generator: Sketch 49.3 (51167) - http://www.bohemiancoding.com/sketch -->
    <title>lightning-bolt</title>
    <desc>Created with Sketch.</desc>
    <defs></defs>
    <g id="Page-1" stroke="none" stroke-width="1" fill="none" fill-rule="evenodd" >
        <g id="Somethings-going-on-here...-Copy" transform="translate(-439.000000, -864.000000)" fill="#1DE2A3">
            <g id="Icons" transform="translate(53.000000, 120.000000)">
                <path d="M452.425751,773.34118 C452.112955,772.664524 451.708932,772.15705 451.213663,771.818717 C450.718404,771.480395 450.131919,771.311233 449.454187,771.311233 L423.101101,771.311233 L426.072675,748.357224 C426.281203,747.680569 426.176934,746.990921 425.759879,746.288243 C425.342814,745.585564 424.795426,745.15616 424.117694,745 C423.439962,744.687701 422.723143,744.609631 421.967218,744.76578 C421.211292,744.92193 420.598742,745.338323 420.129547,746.014978 L386.738547,785.989307 C386.373616,786.509813 386.139022,787.082355 386.034756,787.706954 C385.93049,788.331553 386.06082,788.982175 386.425751,789.65882 C386.738549,790.179326 387.142573,790.582707 387.637837,790.868983 C388.1331,791.155259 388.719586,791.298398 389.397315,791.298398 L415.7504,791.298398 L412.778826,814.330482 C412.570299,815.007134 412.674568,815.683775 413.091623,816.360428 C413.508688,817.03708 414.056076,817.453475 414.733808,817.609626 C414.890206,817.817826 415.111766,817.934937 415.398497,817.960963 C415.685229,817.986988 415.906788,818 416.063197,818 C416.58452,818 417.079779,817.895901 417.548974,817.687701 C418.018168,817.4795 418.409158,817.141179 418.721954,816.672727 L452.112955,776.698404 C452.47789,776.177898 452.712482,775.618367 452.816741,775.019792 C452.92101,774.421216 452.790686,773.861685 452.425751,773.34118 Z M420.75514,803.634226 L422.788305,788.331553 C422.788305,787.811047 422.710111,787.316585 422.553713,786.848125 C422.397315,786.379676 422.240917,785.989307 422.084519,785.677008 C421.771722,785.312652 421.380732,785.052409 420.911528,784.896259 C420.442333,784.740109 419.947085,784.662029 419.425751,784.662029 L396.435229,784.662029 L417.783566,758.975405 L416.063197,774.356148 C416.063197,774.824607 416.141391,775.293046 416.297789,775.761505 C416.454187,776.229954 416.610585,776.646347 416.766983,777.010703 C417.079779,777.323002 417.457737,777.570234 417.900867,777.752407 C418.343996,777.93459 418.748019,778.025671 419.112955,778.025671 L442.103476,778.025671 L420.75514,803.634226 Z" id="lightning-bolt"></path>
            </g>
        </g>
    </g>
</svg>