<?xml version="1.0" encoding="UTF-8"?>
<svg width="67px" height="80px" viewBox="0 0 67 80" version="1.1" xmlns="http://www.w3.org/2000/svg" xmlns:xlink="http://www.w3.org/1999/xlink">
    <!-- Generator: Sketch 49.3 (51167) - http://www.bohemiancoding.com/sketch -->
    <title>map-pin</title>
    <desc>Created with Sketch.</desc>
    <defs></defs>
    <g id="Page-1" stroke="none" stroke-width="1" fill="none" fill-rule="evenodd" >
        <g id="Somethings-going-on-here...-Copy" transform="translate(-1541.000000, -433.000000)" fill="#D458D1">
            <g id="Icons" transform="translate(53.000000, 120.000000)">
                <path d="M1521.50001,313 C1516.89732,313 1512.55623,313.88541 1508.47658,315.65625 C1504.44924,317.42709 1500.91883,319.8229 1497.88525,322.84375 C1494.85166,325.8646 1492.44575,329.38019 1490.66745,333.39062 C1488.88914,337.45315 1488,341.77602 1488,346.35938 C1488,352.50524 1489.59522,358.33851 1492.78571,363.85938 C1495.97621,369.38024 1499.50661,374.22394 1503.37705,378.39062 C1507.24749,382.55731 1510.8302,385.890613 1514.12529,388.390625 C1517.4727,390.890638 1519.25097,392.218749 1519.46018,392.375 C1519.82631,392.531251 1520.17935,392.674479 1520.51932,392.804688 C1520.8593,392.934896 1521.18618,393 1521.50001,393 C1521.81382,393 1522.1407,392.934896 1522.48068,392.804688 C1522.82065,392.674479 1523.17369,392.531251 1523.53981,392.375 C1523.74903,392.218749 1525.52731,390.890638 1528.8747,388.390625 C1532.1698,385.890613 1535.75251,382.55731 1539.62295,378.39062 C1543.49339,374.22394 1547.0238,369.38024 1550.21428,363.85938 C1553.40477,358.33851 1555,352.50524 1555,346.35938 C1555,341.77602 1554.11086,337.45315 1552.33255,333.39062 C1550.55425,329.38019 1548.14834,325.8646 1545.11475,322.84375 C1542.08117,319.8229 1538.55076,317.42709 1534.52341,315.65625 C1530.44377,313.88541 1526.10268,313 1521.50001,313 Z M1521.50001,385.65625 C1519.93091,384.510411 1517.6296,382.66147 1514.59602,380.10938 C1511.61474,377.55728 1508.65965,374.53648 1505.73068,371.04688 C1502.8017,367.55727 1500.23889,363.6771 1498.04215,359.40625 C1495.84542,355.18748 1494.74707,350.83856 1494.74707,346.35938 C1494.74707,342.71352 1495.45315,339.25002 1496.86534,335.96875 C1498.27752,332.73957 1500.18656,329.9271 1502.59251,327.53125 C1504.99846,325.1354 1507.82278,323.23438 1511.06557,321.82812 C1514.36068,320.42187 1517.83878,319.71875 1521.50001,319.71875 C1525.16122,319.71875 1528.63932,320.42187 1531.93443,321.82812 C1535.17722,323.23438 1538.00154,325.1354 1540.40749,327.53125 C1542.81344,329.9271 1544.72248,332.73957 1546.13466,335.96875 C1547.54684,339.25002 1548.25293,342.71352 1548.25293,346.35938 C1548.25293,350.83856 1547.15458,355.18748 1544.95785,359.40625 C1542.76111,363.6771 1540.1983,367.55727 1537.26932,371.04688 C1534.34035,374.53648 1531.38526,377.55728 1528.40399,380.10938 C1525.3704,382.66147 1523.06909,384.510411 1521.50001,385.65625 Z M1521.50001,333 C1517.83878,333 1514.68756,334.31509 1512.04625,336.94531 C1509.40494,339.57553 1508.08431,342.71352 1508.08431,346.35938 C1508.08431,350.00523 1509.40494,353.14322 1512.04625,355.77344 C1514.68756,358.40366 1517.83878,359.71875 1521.50001,359.71875 C1525.16122,359.71875 1528.31244,358.40366 1530.95375,355.77344 C1533.59506,353.14322 1534.91569,350.00523 1534.91569,346.35938 C1534.91569,342.71352 1533.59506,339.57553 1530.95375,336.94531 C1528.31244,334.31509 1525.16122,333 1521.50001,333 Z M1521.50001,353 C1519.66939,353 1518.10031,352.34896 1516.79275,351.04688 C1515.48517,349.74479 1514.83138,348.1823 1514.83138,346.35938 C1514.83138,344.53645 1515.48517,342.97396 1516.79275,341.67188 C1518.10031,340.36979 1519.66939,339.71875 1521.50001,339.71875 C1523.33061,339.71875 1524.89969,340.36979 1526.20726,341.67188 C1527.51483,342.97396 1528.16862,344.53645 1528.16862,346.35938 C1528.16862,348.1823 1527.51483,349.74479 1526.20726,351.04688 C1524.89969,352.34896 1523.33061,353 1521.50001,353 Z" id="map-pin"></path>
            </g>
        </g>
    </g>
</svg>