<?xml version="1.0" encoding="UTF-8"?>
<svg width="67px" height="67px" viewBox="0 0 67 67" version="1.1" xmlns="http://www.w3.org/2000/svg" xmlns:xlink="http://www.w3.org/1999/xlink">
    <!-- Generator: Sketch 49.3 (51167) - http://www.bohemiancoding.com/sketch -->
    <title>musical-note</title>
    <desc>Created with Sketch.</desc>
    <defs></defs>
    <g id="Page-1" stroke="none" stroke-width="1" fill="none" fill-rule="evenodd" >
        <g id="Somethings-going-on-here...-Copy" transform="translate(-53.000000, -616.000000)" fill="#00CBFF">
            <g id="Icons" transform="translate(53.000000, 120.000000)">
                <path d="M65.6662713,496.628371 C65.3001545,496.314175 64.881738,496.130902 64.411002,496.078541 C63.940276,496.02618 63.4434103,496 62.9203747,496 L22.7517564,502.676432 C22.1241218,502.833524 21.5226369,503.226251 20.9473118,503.854631 C20.3719767,504.483002 20.0843091,505.216094 20.0843091,506.053928 L20.0843091,542.892144 L10.0421546,542.892144 C7.21778454,542.892144 4.83802688,543.86087 2.9028103,545.798352 C0.967593727,547.735845 0,550.118395 0,552.946072 C0,555.773753 0.967593727,558.156301 2.9028103,560.093786 C4.83802688,562.031272 7.21778454,563 10.0421546,563 L16.7892272,563 C19.6135932,563 21.9933528,562.031272 23.9285664,560.093786 C25.86379,558.156301 26.8313817,555.773753 26.8313817,552.946072 L26.8313817,508.724493 L60.2529274,502.990617 L60.2529274,536.215712 L50.2107728,536.215712 C47.3864068,536.215712 45.0066472,537.171348 43.0714236,539.08265 C41.13621,540.993952 40.1686183,543.389592 40.1686183,546.26964 C40.1686183,549.097318 41.13621,551.479867 43.0714236,553.41735 C45.0066472,555.354835 47.3864068,556.323563 50.2107728,556.323563 L56.9578454,556.323563 C59.7822114,556.323563 62.1619711,555.354835 64.0971847,553.41735 C66.0324083,551.479867 67,549.097318 67,546.26964 L67,499.298935 C67,498.827657 66.8953909,498.356389 66.6861827,497.885112 C66.4769745,497.413824 66.1370074,496.994917 65.6662713,496.628371 Z M20.0843091,552.946072 C20.0843091,553.940997 19.7835667,554.752634 19.1820818,555.381008 C18.5805969,556.009381 17.7829887,556.323563 16.7892272,556.323563 L10.0421546,556.323563 C9.048395,556.323563 8.25078382,556.009381 7.64929793,555.381008 C7.04781103,554.752634 6.7470726,553.940997 6.7470726,552.946072 C6.7470726,551.951145 7.04781103,551.139512 7.64929793,550.511131 C8.25078382,549.882761 9.048395,549.568575 10.0421546,549.568575 L20.0843091,549.568575 L20.0843091,552.946072 Z M60.2529274,546.26964 C60.2529274,547.264557 59.952185,548.06311 59.3507001,548.6653 C58.7492152,549.26749 57.951607,549.568575 56.9578454,549.568575 L50.2107728,549.568575 C49.2170113,549.568575 48.4194031,549.26749 47.8179182,548.6653 C47.2164333,548.06311 46.9156909,547.264557 46.9156909,546.26964 C46.9156909,545.222343 47.2164333,544.397619 47.8179182,543.795429 C48.4194031,543.193239 49.2170113,542.892144 50.2107728,542.892144 L60.2529274,542.892144 L60.2529274,546.26964 Z" id="musical-note"></path>
            </g>
        </g>
    </g>
</svg>