<?xml version="1.0" encoding="UTF-8"?>
<svg width="73px" height="67px" viewBox="0 0 73 67" version="1.1" xmlns="http://www.w3.org/2000/svg" xmlns:xlink="http://www.w3.org/1999/xlink">
    <!-- Generator: Sketch 49.3 (51167) - http://www.bohemiancoding.com/sketch -->
    <title>pulse</title>
    <desc>Created with Sketch.</desc>
    <defs></defs>
    <g id="Page-1" stroke="none" stroke-width="1" fill="none" fill-rule="evenodd" >
        <g id="Somethings-going-on-here...-Copy" transform="translate(-1182.000000, -901.000000)" fill="#D458D1">
            <g id="Icons" transform="translate(53.000000, 120.000000)">
                <path d="M1198.73134,811.021006 L1185.42324,811.021006 C1184.74875,811.021006 1184.12615,811.242511 1183.55543,811.685531 C1182.98472,812.128551 1182.62154,812.688833 1182.46589,813.366387 L1175.46162,833.693109 L1158.49574,783.345381 C1158.34008,782.667827 1157.9769,782.107545 1157.40618,781.664525 C1156.83547,781.221505 1156.21287,781 1155.53837,781 C1154.86389,781 1154.24129,781.221505 1153.67057,781.664525 C1153.09986,782.107545 1152.73668,782.667827 1152.58103,783.345381 L1143.24201,811.021006 L1132.26866,811.021006 C1131.28287,811.021006 1130.49165,811.320685 1129.89499,811.920065 C1129.29833,812.519444 1129,813.31427 1129,814.304543 C1129,815.346953 1129.29833,816.167827 1129.89499,816.767206 C1130.49165,817.366586 1131.28287,817.666275 1132.26866,817.666275 L1145.57675,817.666275 C1146.25125,817.666275 1146.87385,817.44477 1147.44456,817.00175 C1148.01528,816.55873 1148.37846,815.998448 1148.53412,815.320884 L1155.53837,794.994162 L1172.50427,845.654609 C1172.65992,846.33217 1173.0231,846.892452 1173.59381,847.335473 C1174.16453,847.778493 1174.78713,848 1175.46162,848 C1176.13611,848 1176.75871,847.778493 1177.32942,847.335473 C1177.90014,846.892452 1178.26332,846.33217 1178.41898,845.654609 L1187.758,817.978994 L1198.73134,817.978994 C1199.71714,817.978994 1200.50835,817.679305 1201.10501,817.079925 C1201.70167,816.480546 1202,815.68573 1202,814.695447 C1202,813.653047 1201.70167,812.780047 1201.10501,812.076424 C1200.50835,811.372802 1199.71714,811.021006 1198.73134,811.021006 Z" id="pulse"></path>
            </g>
        </g>
    </g>
</svg>