<?xml version="1.0" encoding="UTF-8"?>
<svg width="1680px" height="1024px" viewBox="0 0 1680 1024" version="1.1" xmlns="http://www.w3.org/2000/svg" xmlns:xlink="http://www.w3.org/1999/xlink">
    <!-- Generator: Sketch 49.3 (51167) - http://www.bohemiancoding.com/sketch -->
    <title>site-bg</title>
    <desc>Created with Sketch.</desc>
    <defs>
        <rect id="path-1" x="0" y="0" width="1680" height="1024"></rect>
        <radialGradient cx="29.6972086%" cy="19.8868979%" fx="29.6972086%" fy="19.8868979%" r="123.668038%" gradientTransform="translate(0.296972,0.198869),scale(1.000000,0.867500),translate(-0.296972,-0.198869)" id="radialGradient-3">
            <stop stop-color="#D458D1" offset="0%"></stop>
            <stop stop-color="#702F6E" offset="100%"></stop>
        </radialGradient>
        <radialGradient cx="49.9846148%" cy="50.0131598%" fx="49.9846148%" fy="50.0131598%" r="60.9542978%" gradientTransform="translate(0.499846,0.500132),scale(1.000000,0.713942),translate(-0.499846,-0.500132)" id="radialGradient-4">
            <stop stop-color="#00CBFF" offset="0%"></stop>
            <stop stop-color="#0089AD" offset="100%"></stop>
        </radialGradient>
    </defs>
    <g id="Page-1" stroke="none" stroke-width="1" fill="none" fill-rule="evenodd">
        <g id="site-bg">
            <mask id="mask-2" fill="white">
                <use xlink:href="#path-1"></use>
            </mask>
            <use id="Mask" fill="#1C1D25" xlink:href="#path-1"></use>
            <g id="D" mask="url(#mask-2)">
                <g transform="translate(1397.000000, 684.000000)">
                    <path d="M145.367256,0.000208288149 L36.6072163,0.127951276 C16.389609,0.127951276 0,16.4686609 0,36.6259477 L0.420982988,381.751002 C0.420982988,391.829645 8.6157875,400 18.7245912,400 L71.2193394,400 C81.328143,400 89.5229475,391.829645 89.5229475,381.751002 L89.5229475,315.744375 L89.7791981,315.415893 L89.4863403,102.431835 C89.4863403,92.3531918 97.6811448,84.182837 107.789948,84.182837 L141.541802,84.182837 C203.188354,84.182837 253.578188,120.133363 253.669706,200.228217 C253.761224,267.329783 218.453563,303.170816 170.717753,313.080022 C146.875212,317.977473 129.777922,338.921135 129.809189,363.191771 L129.809189,390.766007 C129.809189,395.805329 133.906591,399.890506 138.960993,399.890506 L145.531989,399.890506 C173.141711,400.116871 200.580023,395.547171 226.616973,386.386247 C301.149265,359.395979 347.109625,293.133866 346.999804,199.972731 C346.853375,76.4635108 265.859909,-0.145783698 145.367256,0.000208288149 Z" id="Shape" fill="url(#radialGradient-3)" fill-rule="nonzero"></path>
                    <g id="Group" opacity="0.2" stroke-width="1" fill="none" fill-rule="evenodd" transform="translate(129.000000, 17.000000)">
                        <path d="M105.647563,0.109282932 C139.226891,52.5104488 142.670924,113.781746 124.571429,183.959602 C124.424874,184.506017 124.26,185.034218 124.113445,185.562418 C123.307395,250.913612 88.2991597,285.938791 41.1268908,295.7014 C17.2638732,300.589411 0.151899378,321.492702 0.183193277,345.716555 L0.183193277,373.383351 C0.183193277,378.412959 4.28411448,382.490262 9.34285714,382.490262 L15.9194958,382.490262 C43.5590742,382.718308 71.0273327,378.157386 97.092437,369.012033 C171.688739,342.073791 217.688571,275.939403 217.578655,182.957842 C217.468739,93.6736865 174.912941,28.959977 105.647563,0.109282932 Z" id="Shape" fill="#FFFFFF" fill-rule="nonzero"></path>
                    </g>
                </g>
            </g>
            <g id="S" mask="url(#mask-2)">
                <g transform="translate(-95.000000, -31.000000)">
                    <path d="M226.48915,124.046028 C217.734647,126.504859 208.500468,122.16371 204.830053,113.863705 C197.21467,96.9963863 179.536755,78.8175702 142.738204,78.8722159 C109.427753,78.8722159 87.9512779,99.7651038 87.9512779,121.714476 C87.9512779,140.8587 99.8400408,154.92087 127.489176,159.966494 L181.143838,170.094171 C257.352452,184.065265 296.926875,233.009633 296.999924,289.859417 C297.072973,352.246637 244.660147,416 149.27611,416 C87.7321302,416 45.7288206,393.995982 19.6137194,364.705866 C-8.51023578,333.193489 7.67016959,283.046915 48.833413,273.10139 C58.3048559,270.811762 67.9099295,276.343496 70.6568717,285.669911 C79.4775668,314.613937 104.387356,337.255489 150.390111,337.200843 C185.380694,337.200843 206.820644,320.242449 206.78412,295.469713 C206.78412,275.196144 190.348042,260.587516 163.849432,255.560108 L109.062507,245.487077 C41.3276042,232.608897 0.0730492341,187.635453 0,128.526978 C0,53.0794267 66.4382785,0.0912743892 143.194761,0.000198156157 C230.105088,-0.109093323 270.081281,45.0100725 284.618079,87.4333818 C286.284204,92.1768912 285.911193,97.3962577 283.587337,101.856084 C281.26348,106.315911 277.195334,109.619785 272.345807,110.985696 L226.48915,124.046028 Z" id="Shape" fill="url(#radialGradient-4)" fill-rule="nonzero"></path>
                    <g id="Group" opacity="0.1" stroke-width="1" fill="none" fill-rule="evenodd" transform="translate(4.000000, 179.000000)">
                        <path d="M208.98115,0.0158387745 C227.773367,92.3119638 210.224215,109.885234 200.115173,130.685131 C199.694724,131.560148 199.255995,132.398707 198.817267,133.219036 C197.403346,136.180387 195.588874,138.934395 193.424558,141.404096 C188.652272,147.185989 182.303118,151.466081 175.144192,153.72726 C165.786224,157.170252 155.868785,158.851528 145.895605,158.685693 C144.798783,158.685693 143.738522,158.685693 142.659981,158.685693 L140.338374,158.79507 C126.993706,159.341956 117.780402,156.972117 111.382273,153.563194 C89.4457455,146.637007 72.4414522,129.221517 66.0835251,107.169033 C63.3416019,97.8279623 53.7246925,92.2825186 44.238487,94.5724259 C3.08938195,104.54398 -13.1070228,154.729884 14.9899006,186.266976 C41.1673855,215.580065 83.2122285,237.674259 144.780503,237.601341 C240.258857,237.491964 292.723509,173.797976 292.650388,111.234219 C292.705229,62.9077273 264.187857,20.3599975 208.98115,0.0158387745 Z" id="Shape" fill="#FFFFFF" fill-rule="nonzero"></path>
                    </g>
                </g>
            </g>
        </g>
    </g>
</svg>